<?xml version="1.0" encoding="utf-8"?>
<!-- Generator: Adobe Illustrator 25.3.1, SVG Export Plug-In . SVG Version: 6.00 Build 0)  -->
<svg version="1.1" id="Capa_1" xmlns="http://www.w3.org/2000/svg" xmlns:xlink="http://www.w3.org/1999/xlink" x="0px" y="0px"
	 viewBox="0 0 406.8 406.8" style="enable-background:new 0 0 406.8 406.8;" xml:space="preserve">
<style type="text/css">
	.st0{fill:#FFFFFF;}
</style>
<path class="st0" d="M207,230c0,5.5-4.5,10-10,10h-68.6c-5.5,0-10-4.5-10-10s4.5-10,10-10H197C202.6,220,207,224.5,207,230z
	 M197,258.4h-68.6c-5.5,0-10,4.5-10,10s4.5,10,10,10H197c5.5,0,10-4.5,10-10S202.6,258.4,197,258.4z M127.8,101.6h17.3v17.3
	c0,5.5,4.5,10,10,10s10-4.5,10-10v-17.3h17.3c5.5,0,10-4.5,10-10s-4.5-10-10-10h-17.3V64.2c0-5.5-4.5-10-10-10s-10,4.5-10,10v17.3
	h-17.3c-5.5,0-10,4.5-10,10S122.2,101.6,127.8,101.6z M118.5,191.6c0,5.5,4.5,10,10,10h149.9c5.5,0,10-4.5,10-10s-4.5-10-10-10
	H128.5C122.9,181.6,118.5,186.1,118.5,191.6z M348.4,78.6v318.2c0,5.5-4.5,10-10,10H68.5c-5.5,0-10-4.5-10-10V10c0-5.5,4.5-10,10-10
	h201.3c0.4,0,0.8,0,1.2,0.1c0,0,0,0,0,0c0,0,0,0,0,0c0,0,0,0,0,0c0,0,0,0,0,0h0c0.4,0.1,0.8,0.1,1.2,0.2c0,0,0,0,0,0h0
	c1.7,0.4,3.2,1.3,4.5,2.5c0,0,0,0,0,0c0,0,0,0,0,0c0,0,0,0,0,0c0,0,0,0,0,0c0,0,0,0,0,0c0,0,0,0,0,0c0,0,0,0,0,0l68.6,68.6
	c0,0,0,0,0,0c0,0,0,0,0,0c0,0,0,0,0,0c0,0,0,0,0,0c0,0,0,0,0,0c0,0,0,0,0,0c0,0,0,0,0,0l0,0c1.2,1.2,2,2.7,2.5,4.3c0,0,0,0,0,0
	c0,0,0,0,0,0c0,0,0,0,0,0c0,0,0,0,0,0c0,0,0,0,0,0c0,0,0,0,0,0c0.1,0.5,0.2,1,0.3,1.4c0,0,0,0,0,0s0,0,0,0c0,0,0,0,0,0c0,0,0,0,0,0
	C348.4,77.9,348.4,78.3,348.4,78.6z M279.8,68.6h34.4l-34.4-34.4V68.6z M328.4,88.6h-58.6c-5.5,0-10-4.5-10-10V20H78.5v366.8h249.9
	V88.6z M278.4,220h-37.9c-5.5,0-10,4.5-10,10s4.5,10,10,10h37.9c5.5,0,10-4.5,10-10S283.9,220,278.4,220z M278.4,328.6h-37.9
	c-5.5,0-10,4.5-10,10s4.5,10,10,10h37.9c5.5,0,10-4.5,10-10S283.9,328.6,278.4,328.6z M278.4,258.4h-37.9c-5.5,0-10,4.5-10,10
	s4.5,10,10,10h37.9c5.5,0,10-4.5,10-10S283.9,258.4,278.4,258.4z"/>
</svg>
